<?xml version="1.0" encoding="iso-8859-1"?>
<!-- Generator: Adobe Illustrator 19.0.0, SVG Export Plug-In . SVG Version: 6.00 Build 0)  -->
<svg version="1.1" id="Capa_1" xmlns="http://www.w3.org/2000/svg" xmlns:xlink="http://www.w3.org/1999/xlink" x="0px" y="0px"
	 viewBox="0 0 512.024 512.024" style="enable-background:new 0 0 512.024 512.024;" xml:space="preserve">
<g>
	<g>
		<path d="M496.024,159.998h-480c-8.832,0-16,7.168-16,16c0,8.832,7.168,16,16,16h480c8.832,0,16-7.168,16-16
			C512.024,167.166,504.856,159.998,496.024,159.998z"/>
	</g>
</g>
<g>
	<g>
		<path d="M395.992,165.374l-128-144c-6.08-6.848-17.888-6.848-23.936,0l-128,144c-5.856,6.592-5.28,16.736,1.344,22.592
			c6.592,5.856,16.704,5.28,22.592-1.344l116.032-130.56l116.032,130.56c3.168,3.552,7.552,5.376,11.968,5.376
			c3.776,0,7.584-1.344,10.624-4.032C401.24,182.078,401.88,171.966,395.992,165.374z"/>
	</g>
</g>
<g>
	<g>
		<path d="M508.024,165.47l-112-128c-2.56-2.944-6.144-4.864-10.016-5.344l-128-16c-1.248-0.128-2.4-0.128-3.584-0.032l-160,16
			c-4.928,0.48-9.344,3.232-11.968,7.424l-80,128c-3.616,5.728-3.2,13.088,0.992,18.4l240,304c3.04,3.84,7.68,6.08,12.576,6.08
			s9.536-2.24,12.544-6.08l240-304C513.336,179.87,513.112,171.262,508.024,165.47z M256.024,454.174L35.544,174.91l69.888-111.808
			l150.4-15.04l120.16,15.04l99.232,113.408L256.024,454.174z"/>
	</g>
</g>
<g>
	<g>
		<path d="M270.776,473.79l-128-304c-3.456-8.16-12.896-11.904-20.96-8.544c-8.16,3.424-11.968,12.8-8.544,20.96l128,304
			c2.592,6.112,8.512,9.792,14.752,9.792c2.048,0,4.192-0.416,6.208-1.248C270.36,491.326,274.2,481.95,270.776,473.79z"/>
	</g>
</g>
<g>
	<g>
		<path d="M390.232,161.246c-8.224-3.456-17.536,0.416-20.96,8.544l-128,304c-3.424,8.16,0.384,17.536,8.544,20.96
			c2.016,0.832,4.128,1.248,6.208,1.248c6.24,0,12.16-3.68,14.752-9.792l128-304C402.2,174.046,398.36,164.67,390.232,161.246z"/>
	</g>
</g>
<g>
	<g>
		<path d="M143.544,172.126l-32-128c-2.144-8.576-10.88-13.824-19.392-11.648C83.576,34.622,78.36,43.326,80.536,51.87l32,128
			c1.792,7.296,8.32,12.128,15.488,12.128c1.28,0,2.592-0.16,3.872-0.48C140.472,189.374,145.688,180.702,143.544,172.126z"/>
	</g>
</g>
<g>
	<g>
		<path d="M384.024,31.998c-8.832,0-16,7.168-16,16v128c0,8.832,7.168,16,16,16c8.832,0,16-7.168,16-16v-128
			C400.024,39.166,392.856,31.998,384.024,31.998z"/>
	</g>
</g>
<g>
</g>
<g>
</g>
<g>
</g>
<g>
</g>
<g>
</g>
<g>
</g>
<g>
</g>
<g>
</g>
<g>
</g>
<g>
</g>
<g>
</g>
<g>
</g>
<g>
</g>
<g>
</g>
<g>
</g>
</svg>
